<svg class="diagram-root" style="background: #f5f6f6" xmlns="http://www.w3.org/2000/svg" xmlns:xlink="http://www.w3.org/1999/xlink"><style>.diagram-root { font-family: "Helvetica Neue", sans-serif; font-size: 12px; } .t { overflow: visible; } .t-bg { y: 40; fill: #fff;   } .th { fill: #005aa0;   } .tht { fill: #fff; font-size: 14px;  } .tf { fill: #323c46; overflow: visible; } .tf.pk { fill: #005aa0; font-weight: bold; } .tf.fk { font-weight: bold; } .ty { fill: #adb1b5; font-weight: normal; text-anchor: end; } .r { fill: transparent; stroke: #c3c3c3; stroke-width: 1; } .l { stroke: 1; } .i { fill: #c2c7ce; stroke: #c2c7ce; } .i.ix { fill: #afb3b6; stroke: #000; } .fa { fill: transparent; overflow: visible; } .fa .bg.hover { fill: #f7f7f7; } .c { cy: 12; r: 4; stroke: #d2d2dc; fill: #d2d2dc; } .hr { fill: transparent; stroke: #323c46; stroke-opacity: 0.035; stroke-width: 13; } .dc { stroke: #fa5a3c; fill: #fa5a3c; } .x { stroke: white; stroke-width: 1; } .hl .th { fill: #1b9bff; } .hl .tht {  } .fhl .bg { fill: #e7f4ff; } .fhls .bg {  } .r.hl { stroke: #1b9bff; } .dim { opacity: 0.25; }</style><g class="drawing-wrapper" transform="translate(-215.92000000000002, -374.16) scale(1,1)"><g class="rs"><path d="M 429.06 486.16 m -1, 0 a 1,1 0 1,0 2,0 a 1,1 0 1,0 -2,0 M 429.06 486.16 m -0.5, 0 a 0.5,0.5 0 1,0 1,0 a 0.5,0.5 0 1,0 -1,0  M429.06 486.16 L429.06 486.16 441.06 486.16 M 429.06 492.16 m -1, 0 a 1,1 0 1,0 2,0 a 1,1 0 1,0 -2,0 M 429.06 492.16 m -0.5, 0 a 0.5,0.5 0 1,0 1,0 a 0.5,0.5 0 1,0 -1,0  M429.06 492.16 L429.06 492.16 436.06 486.16 429.06 480.16 M 429.06 480.16 m -1, 0 a 1,1 0 1,0 2,0 a 1,1 0 1,0 -2,0 M 429.06 480.16 m -0.5, 0 a 0.5,0.5 0 1,0 1,0 a 0.5,0.5 0 1,0 -1,0  M441.06 486.16 Q 458.21 486.16, 475.36 485.75 T 509.65999999999997 485.33 M 521.66 485.33 m -1, 0 a 1,1 0 1,0 2,0 a 1,1 0 1,0 -2,0 M 521.66 485.33 m -0.5, 0 a 0.5,0.5 0 1,0 1,0 a 0.5,0.5 0 1,0 -1,0  M521.66 485.33 L521.66 485.33 509.65999999999997 485.33 M515.66 491.33 L515.66 491.33 515.66 479.33" id="h2068398280" class="r"></path><path d="M 429.06 686.1600000000001 m -1, 0 a 1,1 0 1,0 2,0 a 1,1 0 1,0 -2,0 M 429.06 686.1600000000001 m -0.5, 0 a 0.5,0.5 0 1,0 1,0 a 0.5,0.5 0 1,0 -1,0  M429.06 686.1600000000001 L429.06 686.1600000000001 441.06 686.1600000000001 M 429.06 692.1600000000001 m -1, 0 a 1,1 0 1,0 2,0 a 1,1 0 1,0 -2,0 M 429.06 692.1600000000001 m -0.5, 0 a 0.5,0.5 0 1,0 1,0 a 0.5,0.5 0 1,0 -1,0  M429.06 692.1600000000001 L429.06 692.1600000000001 436.06 686.1600000000001 429.06 680.1600000000001 M 429.06 680.1600000000001 m -1, 0 a 1,1 0 1,0 2,0 a 1,1 0 1,0 -2,0 M 429.06 680.1600000000001 m -0.5, 0 a 0.5,0.5 0 1,0 1,0 a 0.5,0.5 0 1,0 -1,0  M441.06 686.1600000000001 Q 463.95 686.1600000000001, 486.83 685.75 T 532.59 685.33 M 544.59 685.33 m -1, 0 a 1,1 0 1,0 2,0 a 1,1 0 1,0 -2,0 M 544.59 685.33 m -0.5, 0 a 0.5,0.5 0 1,0 1,0 a 0.5,0.5 0 1,0 -1,0  M544.59 685.33 L544.59 685.33 532.59 685.33 M538.59 691.33 L538.59 691.33 538.59 679.33" id="h267560103" class="r"></path></g><g class="hrs"></g><g class="ts"><svg width="162" height="125" x="521.66" y="428.33" id="h1308615448" class="t"><rect height="40" width="162" class="th"></rect><text x="13" y="25" class="tht">Counties</text><rect height="85" width="162" class="t-bg"></rect><text x="13" y="61" class="tf pk">FIPS<tspan x="149" class="ty">TEXT</tspan></text><path d="M7,14A2,2 0 0,1 5,12A2,2 0 0,1 7,10A2,2 0 0,1 9,12A2,2 0 0,1 7,14M12.65,10C11.83,7.67 9.61,6 7, 6A6, 6 0 0, 0 1, 12A6, 6 0 0, 0 7, 18C9.61, 18 11.83, 16.33 12.65, 14H17V18H21V14H23V10H12.65Z" class="i pk" transform="translate(98.33203125, 48) scale(0.65)"></path><text x="13" y="86" class="tf">COUNTYNAME<tspan x="149" class="ty">TEXT</tspan></text><text x="13" y="111" class="tf">STATE<tspan x="149" class="ty">TEXT</tspan></text></svg><svg width="150.02" height="125" x="544.59" y="628.33" id="h1484214135" class="t"><rect height="40" width="150.02" class="th"></rect><text x="13" y="25" class="tht">Scales</text><rect height="85" width="150.02" class="t-bg"></rect><text x="13" y="61" class="tf pk">F_SCALE<tspan x="137.02" class="ty">TEXT</tspan></text><path d="M7,14A2,2 0 0,1 5,12A2,2 0 0,1 7,10A2,2 0 0,1 9,12A2,2 0 0,1 7,14M12.65,10C11.83,7.67 9.61,6 7, 6A6, 6 0 0, 0 1, 12A6, 6 0 0, 0 7, 18C9.61, 18 11.83, 16.33 12.65, 14H17V18H21V14H23V10H12.65Z" class="i pk" transform="translate(86.35203125000001, 48) scale(0.65)"></path><text x="13" y="86" class="tf">FUJITA<tspan x="137.02" class="ty">TEXT</tspan></text><text x="13" y="111" class="tf">DAMAGE<tspan x="137.02" class="ty">TEXT</tspan></text></svg><svg width="191.14" height="625" x="237.92" y="404.16" id="h1123915873" class="t"><rect height="40" width="191.14" class="th"></rect><text x="13" y="25" class="tht">Events</text><rect height="585" width="191.14" class="t-bg"></rect><text x="13" y="61" class="tf pk">EVENT_ID<tspan x="178.14" class="ty">INT</tspan></text><path d="M7,14A2,2 0 0,1 5,12A2,2 0 0,1 7,10A2,2 0 0,1 9,12A2,2 0 0,1 7,14M12.65,10C11.83,7.67 9.61,6 7, 6A6, 6 0 0, 0 1, 12A6, 6 0 0, 0 7, 18C9.61, 18 11.83, 16.33 12.65, 14H17V18H21V14H23V10H12.65Z" class="i pk" transform="translate(138.809921875, 48) scale(0.65)"></path><text x="13" y="86" class="tf fk">FIPS<tspan x="178.14" class="ty">TEXT</tspan></text><text x="13" y="111" class="tf">BEGIN_TIMESTAMP<tspan x="178.14" class="ty">TEXT</tspan></text><text x="13" y="136" class="tf">END_TIMESTAMP<tspan x="178.14" class="ty">TEXT</tspan></text><text x="13" y="161" class="tf">DEATHS<tspan x="178.14" class="ty">INT</tspan></text><text x="13" y="186" class="tf">INJURIES<tspan x="178.14" class="ty">INT</tspan></text><text x="13" y="211" class="tf">DAMAGE_PROPERTY<tspan x="178.14" class="ty">INT</tspan></text><text x="13" y="236" class="tf">DAMAGE_CROPS<tspan x="178.14" class="ty">INT</tspan></text><text x="13" y="261" class="tf">TOR_F_SCALE<tspan x="178.14" class="ty">TEXT</tspan></text><text x="13" y="286" class="tf fk">TOR_F_LEVEL<tspan x="178.14" class="ty">TEXT</tspan></text><text x="13" y="311" class="tf">TOR_LENGTH<tspan x="178.14" class="ty">NUMERIC</tspan></text><text x="13" y="336" class="tf">TOR_WIDTH<tspan x="178.14" class="ty">INT</tspan></text><text x="13" y="361" class="tf">BEGIN_RANGE<tspan x="178.14" class="ty">INT</tspan></text><text x="13" y="386" class="tf">BEGIN_AZIMUTH<tspan x="178.14" class="ty">TEXT</tspan></text><text x="13" y="411" class="tf">BEGIN_LOCATION<tspan x="178.14" class="ty">TEXT</tspan></text><text x="13" y="436" class="tf">END_RANGE<tspan x="178.14" class="ty">INT</tspan></text><text x="13" y="461" class="tf">END_AZIMUTH<tspan x="178.14" class="ty">TEXT</tspan></text><text x="13" y="486" class="tf">END_LOCATION<tspan x="178.14" class="ty">TEXT</tspan></text><text x="13" y="511" class="tf">BEGIN_LAT<tspan x="178.14" class="ty">NUMERIC</tspan></text><text x="13" y="536" class="tf">BEGIN_LON<tspan x="178.14" class="ty">NUMERIC</tspan></text><text x="13" y="561" class="tf">END_LAT<tspan x="178.14" class="ty">NUMERIC</tspan></text><text x="13" y="586" class="tf">END_LON<tspan x="178.14" class="ty">NUMERIC</tspan></text><text x="13" y="611" class="tf">EVENT_NARRATIVE<tspan x="178.14" class="ty">TEXT</tspan></text></svg></g></g><text class="qdbd-link" x="10" y="20">www.quickdatabasediagrams.com</text></svg>