<svg class="diagram-root" style="background: #f5f6f6" xmlns="http://www.w3.org/2000/svg" xmlns:xlink="http://www.w3.org/1999/xlink"><style>.diagram-root { font-family: "Helvetica Neue", sans-serif; font-size: 12px; } .t { overflow: visible; } .t-bg { y: 40; fill: #fff;   } .th { fill: #005aa0;   } .tht { fill: #fff; font-size: 14px;  } .tf { fill: #323c46; overflow: visible; } .tf.pk { fill: #005aa0; font-weight: bold; } .tf.fk { font-weight: bold; } .ty { fill: #adb1b5; font-weight: normal; text-anchor: end; } .r { fill: transparent; stroke: #c3c3c3; stroke-width: 1; } .l { stroke: 1; } .i { fill: #c2c7ce; stroke: #c2c7ce; } .i.ix { fill: #afb3b6; stroke: #000; } .fa { fill: transparent; overflow: visible; } .fa .bg.hover { fill: #f7f7f7; } .c { cy: 12; r: 4; stroke: #d2d2dc; fill: #d2d2dc; } .hr { fill: transparent; stroke: #323c46; stroke-opacity: 0.035; stroke-width: 13; } .dc { stroke: #fa5a3c; fill: #fa5a3c; } .x { stroke: white; stroke-width: 1; } .hl .th { fill: #1b9bff; } .hl .tht {  } .fhl .bg { fill: #e7f4ff; } .fhls .bg {  } .r.hl { stroke: #1b9bff; } .dim { opacity: 0.25; }</style><g class="drawing-wrapper" transform="translate(4404.5, 3780) scale(1,1)"><g class="rs"><path d="M -4164.23 -3668 m -1, 0 a 1,1 0 1,0 2,0 a 1,1 0 1,0 -2,0 M -4164.23 -3668 m -0.5, 0 a 0.5,0.5 0 1,0 1,0 a 0.5,0.5 0 1,0 -1,0  M-4164.23 -3668 L-4164.23 -3668 -4152.23 -3668 M-4158.23 -3662 L-4158.23 -3662 -4158.23 -3674 M-4152.23 -3668 Q -4131.86 -3668, -4111.49 -3666.75 T -4070.75 -3665.5 M -4058.75 -3665.5 m -1, 0 a 1,1 0 1,0 2,0 a 1,1 0 1,0 -2,0 M -4058.75 -3665.5 m -0.5, 0 a 0.5,0.5 0 1,0 1,0 a 0.5,0.5 0 1,0 -1,0  M-4058.75 -3665.5 L-4058.75 -3665.5 -4070.75 -3665.5 M-4064.75 -3659.5 L-4064.75 -3659.5 -4064.75 -3671.5" id="h2068398280" class="r"></path><path d="M -4164.23 -3468 m -1, 0 a 1,1 0 1,0 2,0 a 1,1 0 1,0 -2,0 M -4164.23 -3468 m -0.5, 0 a 0.5,0.5 0 1,0 1,0 a 0.5,0.5 0 1,0 -1,0  M-4164.23 -3468 L-4164.23 -3468 -4152.23 -3468 M-4158.23 -3462 L-4158.23 -3462 -4158.23 -3474 M-4152.23 -3468 Q -4133.42 -3468, -4114.61 -3469.87 T -4077 -3471.75 M -4065 -3471.75 m -1, 0 a 1,1 0 1,0 2,0 a 1,1 0 1,0 -2,0 M -4065 -3471.75 m -0.5, 0 a 0.5,0.5 0 1,0 1,0 a 0.5,0.5 0 1,0 -1,0  M-4065 -3471.75 L-4065 -3471.75 -4077 -3471.75 M-4071 -3465.75 L-4071 -3465.75 -4071 -3477.75" id="h267560103" class="r"></path></g><g class="hrs"></g><g class="ts"><svg width="218.27" height="625" x="-4382.5" y="-3750" id="h1123915873" class="t"><rect height="40" width="218.27" class="th"></rect><text x="13" y="25" class="tht">Events</text><rect height="585" width="218.27" class="t-bg"></rect><text x="13" y="61" class="tf pk">EVENT_ID<tspan x="205.27" class="ty">INT</tspan></text><path d="M7,14A2,2 0 0,1 5,12A2,2 0 0,1 7,10A2,2 0 0,1 9,12A2,2 0 0,1 7,14M12.65,10C11.83,7.67 9.61,6 7, 6A6, 6 0 0, 0 1, 12A6, 6 0 0, 0 7, 18C9.61, 18 11.83, 16.33 12.65, 14H17V18H21V14H23V10H12.65Z" class="i pk" transform="translate(165.939921875, 48) scale(0.65)"></path><text x="13" y="86" class="tf fk">FIPS<tspan x="205.27" class="ty">VARCHAR</tspan></text><text x="13" y="111" class="tf">BEGIN_TIMESTAMP<tspan x="205.27" class="ty">VARCHAR</tspan></text><text x="13" y="136" class="tf">END_TIMESTAMP<tspan x="205.27" class="ty">VARCHAR</tspan></text><text x="13" y="161" class="tf">DEATHS<tspan x="205.27" class="ty">INT</tspan></text><text x="13" y="186" class="tf">INJURIES<tspan x="205.27" class="ty">INT</tspan></text><text x="13" y="211" class="tf">DAMAGE_PROPERTY<tspan x="205.27" class="ty">INT</tspan></text><text x="13" y="236" class="tf">DAMAGE_CROPS<tspan x="205.27" class="ty">INT</tspan></text><text x="13" y="261" class="tf">TOR_F_SCALE<tspan x="205.27" class="ty">VARCHAR</tspan></text><text x="13" y="286" class="tf fk">TOR_F_LEVEL<tspan x="205.27" class="ty">VARCHAR</tspan></text><text x="13" y="311" class="tf">TOR_LENGTH<tspan x="205.27" class="ty">INT</tspan></text><text x="13" y="336" class="tf">TOR_WIDTH<tspan x="205.27" class="ty">INT</tspan></text><text x="13" y="361" class="tf">BEGIN_RANGE<tspan x="205.27" class="ty">INT</tspan></text><text x="13" y="386" class="tf">BEGIN_AZIMUTH<tspan x="205.27" class="ty">VARCHAR</tspan></text><text x="13" y="411" class="tf">BEGIN_LOCATION<tspan x="205.27" class="ty">VARCHAR</tspan></text><text x="13" y="436" class="tf">END_RANGE<tspan x="205.27" class="ty">INT</tspan></text><text x="13" y="461" class="tf">END_AZIMUTH<tspan x="205.27" class="ty">VARCHAR</tspan></text><text x="13" y="486" class="tf">END_LOCATION<tspan x="205.27" class="ty">VARCHAR</tspan></text><text x="13" y="511" class="tf">BEGIN_LAT<tspan x="205.27" class="ty">INT</tspan></text><text x="13" y="536" class="tf">BEGIN_LON<tspan x="205.27" class="ty">INT</tspan></text><text x="13" y="561" class="tf">END_LAT<tspan x="205.27" class="ty">INT</tspan></text><text x="13" y="586" class="tf">END_LON<tspan x="205.27" class="ty">INT</tspan></text><text x="13" y="611" class="tf">EVENT_NARRATIVE<tspan x="205.27" class="ty">VARCHAR</tspan></text></svg><svg width="189.13" height="125" x="-4058.75" y="-3722.5" id="h1308615448" class="t"><rect height="40" width="189.13" class="th"></rect><text x="13" y="25" class="tht">Counties</text><rect height="85" width="189.13" class="t-bg"></rect><text x="13" y="61" class="tf pk">FIPS<tspan x="176.13" class="ty">VARCHAR</tspan></text><path d="M7,14A2,2 0 0,1 5,12A2,2 0 0,1 7,10A2,2 0 0,1 9,12A2,2 0 0,1 7,14M12.65,10C11.83,7.67 9.61,6 7, 6A6, 6 0 0, 0 1, 12A6, 6 0 0, 0 7, 18C9.61, 18 11.83, 16.33 12.65, 14H17V18H21V14H23V10H12.65Z" class="i pk" transform="translate(98.338984375, 48) scale(0.65)"></path><text x="13" y="86" class="tf">COUNTYNAME<tspan x="176.13" class="ty">VARCHAR</tspan></text><text x="13" y="111" class="tf">STATE<tspan x="176.13" class="ty">INT</tspan></text></svg><svg width="177.15" height="125" x="-4065" y="-3528.75" id="h1484214135" class="t"><rect height="40" width="177.15" class="th"></rect><text x="13" y="25" class="tht">Scales</text><rect height="85" width="177.15" class="t-bg"></rect><text x="13" y="61" class="tf pk">F_SCALE<tspan x="164.15" class="ty">VARCHAR</tspan></text><path d="M7,14A2,2 0 0,1 5,12A2,2 0 0,1 7,10A2,2 0 0,1 9,12A2,2 0 0,1 7,14M12.65,10C11.83,7.67 9.61,6 7, 6A6, 6 0 0, 0 1, 12A6, 6 0 0, 0 7, 18C9.61, 18 11.83, 16.33 12.65, 14H17V18H21V14H23V10H12.65Z" class="i pk" transform="translate(86.358984375, 48) scale(0.65)"></path><text x="13" y="86" class="tf">FUJITA<tspan x="164.15" class="ty">VARCHAR</tspan></text><text x="13" y="111" class="tf">DAMAGE<tspan x="164.15" class="ty">VARCHAR</tspan></text></svg></g></g><text class="qdbd-link" x="10" y="20">www.quickdatabasediagrams.com</text></svg>